<svg xmlns="http://www.w3.org/2000/svg" xmlns:svg="http://www.w3.org/2000/svg" id="svg8" width="100" height="100" x="0" y="0" fill="#fff" version="1.1" viewBox="0 0 32 32"><metadata id="metadata14"/><title id="title2">pc business technology strategy communication job professional</title><g id="g6" style="fill:#fff"><path id="path4" d="M30,3H2A1,1,0,0,0,1,4V22a1,1,0,0,0,1,1H13v2H9.11A1.11,1.11,0,0,0,8,26.11V27H24v-.89A1.11,1.11,0,0,0,22.89,25H19V23H30a1,1,0,0,0,1-1V4A1,1,0,0,0,30,3ZM29,21H3V5H29Z" style="fill:#fff"/></g><g id="g840" transform="translate(0.67735697,0.19066717)" style="fill:#fff;stroke:#fff"><path id="path821" d="M 10.978132,8.7014307 19.679141,17.40244" style="fill:#fff;stroke:#fff;stroke-width:1.92000008;stroke-linecap:round;stroke-linejoin:miter;stroke-miterlimit:4;stroke-dasharray:none;stroke-opacity:1"/><path id="path821-3" d="m 19.667154,8.689446 -8.701009,8.701008" style="fill:#fff;stroke:#fff;stroke-width:1.91999996;stroke-linecap:round;stroke-linejoin:miter;stroke-miterlimit:4;stroke-dasharray:none;stroke-opacity:1"/></g></svg>